<?xml version="1.0" encoding="utf-8"?>
<!-- Generator: Adobe Illustrator 27.9.6, SVG Export Plug-In . SVG Version: 9.03 Build 54986)  -->
<svg version="1.1" id="Layer_1" xmlns="http://www.w3.org/2000/svg" xmlns:xlink="http://www.w3.org/1999/xlink" x="0px" y="0px"
	 viewBox="0 0 5669.3 5102.4" style="enable-background:new 0 0 5669.3 5102.4;" xml:space="preserve">
<style type="text/css">
	.st0{fill:#FFFFFF;}
	.st1{fill:#E1AB40;}
	.st2{fill:none;}
</style>
<path d="M4419.6,2438.5l-2358.2-809.4c-41.8-14.3-64-59.8-49.7-101.6l379-1104.3c14.3-41.8,59.8-64,101.6-49.7l2358.2,809.4
	c41.8,14.3,64,59.8,49.7,101.6l-379,1104.3C4506.9,2430.6,4461.4,2452.8,4419.6,2438.5z"/>
<path class="st0" d="M4831.8,1486.7l-2511-861.8l117.8-343.2c14.3-41.8,59.8-64,101.6-49.7l2359.7,809.9
	c41.8,14.3,64,59.8,49.7,101.6L4831.8,1486.7z"/>
<path class="st0" d="M4298.1,2795.1L1938,1985.1c-41.8-14.3-64-59.8-49.7-101.6l285.4-831.6l2511.5,862l-285.4,831.6
	C4385.4,2787.2,4339.9,2809.5,4298.1,2795.1z"/>
<g>
	<path class="st1" d="M4166.8,2352.8l-302.5-108.3c-16.1-5.8-24.5-23.6-18.8-39.7l108.3-302.5c5.8-16.1,23.6-24.5,39.7-18.8
		l302.5,108.3c16.1,5.8,24.5,23.6,18.8,39.7L4206.5,2334C4200.7,2350.2,4182.9,2358.6,4166.8,2352.8z"/>
	<g>
		<path class="st0" d="M4025.9,2221.2l9.3-27.1c-15.5-5.6-29.9-16-37-25.9l12.6-15.8c7.4,9.7,19.6,19.6,34.7,24.8
			c19,6.5,35.7,0,40.9-15.3c5.1-14.7-2.3-27.5-19.3-42.3c-23.7-20.1-36.3-38.2-28.3-61.6c7.6-22.3,29.3-33.7,55.3-29.3l9.3-27.1
			l16.6,5.7l-8.9,26c15.9,6.1,25.4,14.1,31.6,21.4l-12.8,15.4c-4.5-5.2-13.5-14.8-30.7-20.7c-20.6-7.1-32.7,2.6-36.3,13.3
			c-4.8,13.9,2.7,24.3,22.8,42c23.8,20.7,32.9,39.5,24.7,63.3c-7.3,21.2-28.8,36-58,31l-9.6,27.9L4025.9,2221.2L4025.9,2221.2z"/>
	</g>
</g>
<g id="Layer_1_00000145032840102108952600000013554295219511455901_">
</g>
<g>
	<path class="st0" d="M1322.6,4455.6c-9.1,4.5-27.2,9.1-50.5,9.1c-53.9,0-94.4-34-94.4-96.7c0-59.8,40.5-100.4,99.8-100.4
		c23.8,0,38.8,5.1,45.4,8.5l-6,20.1c-9.4-4.5-22.7-7.9-38.6-7.9c-44.8,0-74.6,28.6-74.6,78.8c0,46.8,26.9,76.8,73.4,76.8
		c15,0,30.3-3.1,40.3-7.9L1322.6,4455.6z"/>
	<path class="st0" d="M1503.8,4364.3c0,65.8-40,100.6-88.7,100.6c-50.5,0-85.9-39.1-85.9-97c0-60.7,37.7-100.4,88.7-100.4
		C1470.1,4267.6,1503.8,4307.6,1503.8,4364.3z M1355.5,4367.4c0,40.8,22.1,77.4,61,77.4c39.1,0,61.2-36,61.2-79.4
		c0-38-19.8-77.7-61-77.7C1375.9,4287.7,1355.5,4325.4,1355.5,4367.4z"/>
	<path class="st0" d="M1528.7,4461.8l0-191.1h26.9l61.2,96.7c14.2,22.4,25.2,42.5,34.3,62.1l0.6-0.3c-2.3-25.5-2.8-48.8-2.8-78.5
		l0-80h23.2l0,191.1h-24.9l-60.7-97c-13.3-21.3-26.1-43.1-35.7-63.8l-0.9,0.3c1.4,24.1,2,47.1,2,78.8v81.6L1528.7,4461.8
		L1528.7,4461.8z"/>
	<path class="st0" d="M1841.7,4455.6c-9.1,4.5-27.2,9.1-50.5,9.1c-53.9,0-94.4-34-94.4-96.7c0-59.8,40.5-100.4,99.8-100.4
		c23.8,0,38.8,5.1,45.4,8.5l-6,20.1c-9.4-4.5-22.7-7.9-38.6-7.9c-44.8,0-74.6,28.6-74.6,78.8c0,46.8,26.9,76.8,73.4,76.8
		c15,0,30.3-3.1,40.3-7.9L1841.7,4455.6z"/>
	<path class="st0" d="M1890.2,4270.7l0,191.1h-24.7l0-191.1H1890.2z"/>
	<path class="st0" d="M1926.2,4270.7h24.7l0,170.4h81.7v20.7h-106.3L1926.2,4270.7z"/>
	<path class="st0" d="M2077.6,4270.7v191.1h-24.7v-191.1H2077.6z"/>
	<path class="st0" d="M2144.5,4401.7l-19.8,60.1h-25.5l64.9-191.1h29.8l65.2,191.1h-26.4l-20.4-60.1H2144.5z M2207.2,4382.4
		l-18.7-55c-4.3-12.5-7.1-23.8-9.9-34.9h-0.6c-2.8,11.3-6,23-9.6,34.6l-18.7,55.3H2207.2z"/>
	<path class="st0" d="M2280,4273.3c15-2.3,32.9-4,52.4-4c35.4,0,60.7,8.2,77.4,23.8c17,15.6,26.9,37.7,26.9,68.6
		c0,31.2-9.6,56.7-27.5,74.3c-17.9,17.9-47.3,27.5-84.5,27.5c-17.6,0-32.3-0.9-44.8-2.3V4273.3z M2304.7,4442.2
		c6.2,1.1,15.3,1.4,24.9,1.4c52.7,0,81.4-29.5,81.4-81.1c0.3-45.1-25.2-73.7-77.4-73.7c-12.8,0-22.4,1.1-28.9,2.6L2304.7,4442.2
		L2304.7,4442.2z"/>
	<path class="st0" d="M2625,4364.3c0,65.8-40,100.6-88.7,100.6c-50.5,0-85.9-39.1-85.9-97c0-60.7,37.7-100.4,88.7-100.4
		C2591.3,4267.6,2625,4307.6,2625,4364.3z M2476.8,4367.4c0,40.8,22.1,77.4,61,77.4c39.1,0,61.2-36,61.2-79.4
		c0-38-19.8-77.7-61-77.7C2497.2,4287.7,2476.8,4325.4,2476.8,4367.4z"/>
	<path class="st0" d="M2650,4273.3c12.5-2.6,30.3-4,47.3-4c26.4,0,43.4,4.8,55.3,15.6c9.6,8.5,15,21.5,15,36.3
		c0,25.2-15.9,42-36,48.8v0.9c14.7,5.1,23.5,18.7,28.1,38.6c6.2,26.6,10.8,45.1,14.7,52.4h-25.5c-3.1-5.4-7.4-21.8-12.8-45.6
		c-5.7-26.4-15.9-36.3-38.3-37.1h-23.2v82.8H2650V4273.3z M2674.6,4360.3h25.2c26.4,0,43.1-14.5,43.1-36.3
		c0-24.7-17.9-35.4-43.9-35.7c-11.9,0-20.4,1.1-24.4,2.3L2674.6,4360.3L2674.6,4360.3z"/>
	<path class="st0" d="M2827.7,4401.7l-19.8,60.1h-25.5l64.9-191.1h29.8l65.2,191.1h-26.4l-20.4-60.1H2827.7z M2890.4,4382.4
		l-18.7-55c-4.3-12.5-7.1-23.8-9.9-34.9h-0.6c-2.8,11.3-6,23-9.6,34.6l-18.7,55.3H2890.4z"/>
	<path class="st0" d="M3016.3,4273.3c15-2.3,32.9-4,52.4-4c35.4,0,60.7,8.2,77.4,23.8c17,15.6,26.9,37.7,26.9,68.6
		c0,31.2-9.6,56.7-27.5,74.3c-17.9,17.9-47.3,27.5-84.5,27.5c-17.6,0-32.3-0.9-44.8-2.3V4273.3z M3040.9,4442.2
		c6.2,1.1,15.3,1.4,24.9,1.4c52.7,0,81.4-29.5,81.4-81.1c0.3-45.1-25.2-73.7-77.4-73.7c-12.8,0-22.4,1.1-28.9,2.6V4442.2z"/>
	<path class="st0" d="M3296.9,4372.2h-74.3v68.9h82.8v20.7H3198v-191.1h103.2v20.7h-78.5v60.4h74.3V4372.2z"/>
	<path class="st0" d="M3516.9,4455.6c-9.1,4.5-27.2,9.1-50.5,9.1c-53.9,0-94.4-34-94.4-96.7c0-59.8,40.5-100.4,99.8-100.4
		c23.8,0,38.8,5.1,45.4,8.5l-6,20.1c-9.4-4.5-22.7-7.9-38.6-7.9c-44.8,0-74.6,28.6-74.6,78.8c0,46.8,26.9,76.8,73.4,76.8
		c15,0,30.3-3.1,40.3-7.9L3516.9,4455.6z"/>
	<path class="st0" d="M3572.8,4401.7l-19.8,60.1h-25.5l64.9-191.1h29.8l65.2,191.1h-26.4l-20.4-60.1H3572.8z M3635.4,4382.4
		l-18.7-55c-4.3-12.5-7.1-23.8-9.9-34.9h-0.6c-2.8,11.3-6,23-9.6,34.6l-18.7,55.3H3635.4z"/>
	<path class="st0" d="M3708.3,4273.3c12.5-2.6,30.3-4,47.3-4c26.4,0,43.4,4.8,55.3,15.6c9.6,8.5,15,21.5,15,36.3
		c0,25.2-15.9,42-36,48.8v0.9c14.7,5.1,23.5,18.7,28.1,38.6c6.2,26.6,10.8,45.1,14.7,52.4h-25.5c-3.1-5.4-7.4-21.8-12.8-45.6
		c-5.7-26.4-15.9-36.3-38.3-37.1h-23.2v82.8h-24.7L3708.3,4273.3L3708.3,4273.3z M3732.9,4360.3h25.2c26.4,0,43.1-14.5,43.1-36.3
		c0-24.7-17.9-35.4-43.9-35.7c-11.9,0-20.4,1.1-24.4,2.3L3732.9,4360.3L3732.9,4360.3z"/>
	<path class="st0" d="M3892.5,4291.7h-58.1v-21h141.5v21h-58.4v170.1h-24.9L3892.5,4291.7L3892.5,4291.7z"/>
	<path class="st0" d="M4145.7,4364.3c0,65.8-40,100.6-88.7,100.6c-50.5,0-85.9-39.1-85.9-97c0-60.7,37.7-100.4,88.7-100.4
		C4112,4267.6,4145.7,4307.6,4145.7,4364.3z M3997.4,4367.4c0,40.8,22.1,77.4,61,77.4c39.1,0,61.2-36,61.2-79.4
		c0-38-19.8-77.7-61-77.7C4017.9,4287.7,3997.4,4325.4,3997.4,4367.4z M4023.2,4258.5c-0.6-17.3,6.8-28.9,19.3-28.9
		c6.2,0,10.8,2.3,16.7,5.7c4.5,2.6,9.1,5.1,13.6,5.1c4.3,0,6.8-2,7.7-11.1h13c0.3,17.9-6,27.5-19,27.5c-6,0-11.1-2.3-17.3-5.4
		c-5.4-2.8-9.4-5.4-13.3-5.4c-4.5,0-6.8,4.8-7.4,12.5L4023.2,4258.5L4023.2,4258.5z"/>
	<path class="st0" d="M4269.6,4372.2h-74.3v68.9h82.8v20.7h-107.5v-191.1h103.2v20.7h-78.5v60.4h74.3L4269.6,4372.2L4269.6,4372.2z"
		/>
	<path class="st0" d="M4299.6,4431.8c11.1,6.8,27.2,12.5,44.2,12.5c25.2,0,40-13.3,40-32.6c0-17.9-10.2-28.1-36-38
		c-31.2-11.1-50.5-27.2-50.5-54.1c0-29.8,24.7-51.9,61.8-51.9c19.6,0,33.7,4.5,42.2,9.4l-6.8,20.1c-6.2-3.4-19-9.1-36.3-9.1
		c-26.1,0-36,15.6-36,28.6c0,17.9,11.6,26.6,38,36.9c32.3,12.5,48.8,28.1,48.8,56.1c0,29.5-21.8,55-66.9,55
		c-18.4,0-38.6-5.4-48.8-12.2L4299.6,4431.8z"/>
</g>
<g>
	<rect x="1218.7" y="3414.8" class="st2" width="2727.4" height="881.7"/>
	<path class="st0" d="M1260.5,3414.8h166.4c116.3,0,166.4,54.1,166.4,164.3v43.9c0,73.5-23.5,120.4-73.5,140.8v2
		c56.1,17.4,74.5,70.4,74.5,151.1v125.5c0,34.7,1,60.2,12.2,86.8h-114.3c-6.1-18.4-10.2-29.6-10.2-87.8v-130.6
		c0-66.3-19.4-87.8-70.4-87.8h-38.8l0,306.2h-112.3L1260.5,3414.8L1260.5,3414.8z M1413.6,3721c41.8,0,67.4-18.4,67.4-75.5v-55.1
		c0-51-17.4-73.5-57.2-73.5h-51l0,204.1L1413.6,3721L1413.6,3721z"/>
	<path class="st0" d="M1661.6,3414.8l306.2,0l0,102.1l-193.9,0l0,188.8H1928v102.1h-154.1l0,219.4l193.9,0l0,102.1l-306.2,0
		L1661.6,3414.8z"/>
	<path class="st0" d="M2009.6,3963.9l0-383.8c0-110.2,57.2-175.5,165.3-175.5c108.2,0,165.3,65.3,165.3,175.5v75.5h-106.1V3573
		c0-46.9-22.5-66.3-56.1-66.3c-33.7,0-56.1,19.4-56.1,66.3v399.1c0,46.9,22.5,65.3,56.1,65.3c33.7,0,56.1-18.4,56.1-65.3V3868h106.1
		v95.9c0,110.2-57.2,175.5-165.3,175.5C2066.8,4139.4,2009.6,4074.1,2009.6,3963.9z"/>
	<path class="st0" d="M2390.3,3959.8v-375.6c0-114.3,60.2-179.6,170.4-179.6c110.2,0,170.4,65.3,170.4,179.6v375.6
		c0,114.3-60.2,179.6-170.4,179.6C2450.5,4139.4,2390.3,4074.1,2390.3,3959.8z M2618.9,3967v-389.9c0-51-22.5-70.4-58.2-70.4
		c-35.7,0-58.2,19.4-58.2,70.4V3967c0,51,22.5,70.4,58.2,70.4C2596.5,4037.4,2618.9,4018,2618.9,3967z"/>
	<path class="st0" d="M2764.9,3414.8l113.3,0l74.5,561.3l74.5-561.3h103.1l-108.2,714.4h-149L2764.9,3414.8z"/>
	<path class="st0" d="M3174.1,3414.8l306.2,0v102.1h-193.9l0,188.8h154.1v102.1h-154.1l0,219.4h193.9v102.1l-306.2,0L3174.1,3414.8z
		"/>
	<path class="st0" d="M3530.3,3414.8l166.4,0c116.4,0,166.4,54.1,166.4,164.3v43.9c0,73.5-23.5,120.4-73.5,140.8v2
		c56.1,17.4,74.5,70.4,74.5,151.1l0,125.5c0,34.7,1,60.2,12.2,86.8H3762c-6.1-18.4-10.2-29.6-10.2-87.8l0-130.6
		c0-66.3-19.4-87.8-70.4-87.8l-38.8,0l0,306.2h-112.3L3530.3,3414.8L3530.3,3414.8z M3683.4,3721c41.8,0,67.4-18.4,67.4-75.5v-55.1
		c0-51-17.4-73.5-57.2-73.5l-51,0l0,204.1L3683.4,3721L3683.4,3721z"/>
</g>
<g>
	<path class="st0" d="M3817.6,3212.3H1324.4c-44.2,0-80-35.8-80-80V1438.4c0-44.2,35.8-80,80-80h2493.3c44.2,0,80,35.8,80,80v1693.9
		C3897.6,3176.5,3861.8,3212.3,3817.6,3212.3z"/>
	<path d="M3750.1,1946.3H1386.6v-352.5c0-44.2,35.8-80,80-80h2203.5c44.2,0,80,35.8,80,80V1946.3z"/>
	<path d="M3675.4,3057H1471.9c-44.2,0-80-35.8-80-80v-724.6h2363.5V2977C3755.4,3021.2,3719.6,3057,3675.4,3057z"/>
	<path class="st1" d="M1893.2,2888.1l-296.6-4.3c-15.8-0.2-28.5-14.3-28.3-31.5l3.9-321.3c0.2-17.1,13.2-30.9,29-30.6l296.6,4.3
		c15.8,0.2,28.5,14.3,28.3,31.5l-3.9,321.3C1922,2874.6,1909,2888.3,1893.2,2888.1z"/>
	<g>
		<path class="st0" d="M1744.3,2809.4v-28.6c-16.4-0.3-33.5-5.4-43.4-12.5l6.8-19c10.2,6.8,24.9,12.2,40.8,12.2
			c20.1,0,33.7-11.6,33.7-27.8c0-15.6-11.1-25.2-32-33.7c-28.9-11.3-46.8-24.4-46.8-49c0-23.5,16.7-41.4,42.8-45.6v-28.6h17.6v27.5
			c17,0.6,28.6,5.1,36.9,9.9l-7.1,18.7c-6-3.4-17.6-9.6-35.7-9.6c-21.8,0-30.1,13-30.1,24.4c0,14.7,10.5,22.1,35.2,32.3
			c29.2,11.9,43.9,26.6,43.9,51.9c0,22.4-15.6,43.4-44.8,48.2v29.5L1744.3,2809.4L1744.3,2809.4z"/>
	</g>
	<g>
		<rect x="2063" y="2410.1" class="st2" width="1723.1" height="568.4"/>
		<path class="st0" d="M2087.3,2806.6v-277.2c0-79.6,41.3-126.8,119.4-126.8c78.1,0,119.4,47.2,119.4,126.8v54.5h-76.7v-59.7
			c0-33.9-16.2-47.9-40.5-47.9s-40.5,14-40.5,47.9v288.2c0,33.9,16.2,47.2,40.5,47.2c24.3,0,40.5-13.3,40.5-47.2v-75.2h76.7v69.3
			c0,79.6-41.3,126.8-119.4,126.8S2087.3,2886.3,2087.3,2806.6z"/>
		<path class="st0" d="M2366.7,2410.1h120.1c84,0,120.1,39.1,120.1,118.7v31.7c0,53.1-17,87-53.1,101.7v1.5
			c40.5,12.5,53.8,50.9,53.8,109.1v90.7c0,25.1,0.7,43.5,8.8,62.7H2534c-4.4-13.3-7.4-21.4-7.4-63.4v-94.4c0-47.9-14-63.4-50.9-63.4
			h-28v221.1h-81.1L2366.7,2410.1L2366.7,2410.1z M2477.3,2631.2c30.2,0,48.6-13.3,48.6-54.5v-39.8c0-36.9-12.5-53.1-41.3-53.1
			h-36.9v147.4H2477.3z"/>
		<path class="st0" d="M2656.4,2410.1h221.1v73.7h-140.1v136.4h111.3v73.7h-111.3v158.5h140.1v73.7h-221.1V2410.1z"/>
		<path class="st0" d="M2913.6,2410.1h123.8c81.1,0,120.9,45,120.9,127.5v260.9c0,82.6-39.8,127.5-120.9,127.5h-123.8V2410.1z
			 M3036,2852.3c25.8,0,41.3-13.3,41.3-50.1v-268.3c0-36.9-15.5-50.1-41.3-50.1h-41.3v368.6L3036,2852.3L3036,2852.3z"/>
		<path class="st0" d="M3205.5,2410.1h81.1v516h-81.1V2410.1z"/>
		<path class="st0" d="M3403.1,2483.8h-84.8v-73.7h250.6v73.7h-84.8v442.3h-81.1L3403.1,2483.8L3403.1,2483.8z"/>
	</g>
</g>
</svg>
