<?xml version="1.0" encoding="utf-8"?>
<!-- Generator: Adobe Illustrator 27.9.6, SVG Export Plug-In . SVG Version: 9.03 Build 54986)  -->
<svg version="1.1" xmlns="http://www.w3.org/2000/svg" xmlns:xlink="http://www.w3.org/1999/xlink" x="0px" y="0px"
     viewBox="0 0 5669.292 5102.362" enable-background="new 0 0 0 0 5102 5102" xml:space="preserve">
<g id="Layer_3">
	<path fill="#262626" d="M5668.408,4.986c0,1686.119-0.117,3372.238,0.884,5058.355c0.019,31.847-7.973,39.038-43.391,39.021
		c-1860.836-0.901-3721.672-0.901-5582.508,0C7.98,5102.379-0.019,5095.194,0,5063.343C1.001,3377.224,0.884,1691.105,0.884,4.986
		c16.321-7.93,33.992-4.024,50.967-4.026c1855.196-0.204,3710.393-0.204,5565.589,0C5634.415,0.962,5652.086-2.944,5668.408,4.986z"
    />
    <g id="Layer_4">
	</g>
</g>
    <g id="Layer_2">
	<g id="Layer_1">
	</g>
        <g>
		<path fill="#FFFFFF" d="M3907.698,3073.621L1943.484,2002.565c-54.979-29.979-75.245-98.851-45.266-153.83l696.895-1278.039
			c29.979-54.979,98.851-75.245,153.83-45.266l1964.214,1071.056c54.979,29.979,75.245,98.851,45.266,153.83l-696.896,1278.039
			C4031.549,3083.334,3962.677,3103.6,3907.698,3073.621z"/>

            <rect x="2181.444" y="1401.625" transform="matrix(0.8782 0.4783 -0.4783 0.8782 1176.6332 -1454.2452)"
                  fill="#262626" width="2524.244" height="362.883"/>
            <path fill="#FFFFFF" d="M3561.63,3305.057l-2236.917-38.722c-62.612-1.084-112.49-52.719-111.406-115.331l25.195-1455.476
			c1.084-62.612,52.719-112.49,115.331-111.406l2236.917,38.722c62.612,1.084,112.49,52.719,111.406,115.331l-25.195,1455.476
			C3675.877,3256.263,3624.241,3306.141,3561.63,3305.057z"/>
            <g>
			<path fill="#262626" d="M2457.691,2332.104c346.87,5.948,693.732,12.637,1040.623,16.903
				c43.065,0.53,53.187,13.037,52.135,55.279c-5.803,233.111-8.124,466.307-11.863,699.47c-0.738,46.044-6.715,50.868-61.693,49.942
				c-516.768-8.706-1033.533-17.61-1550.301-26.31c-168.479-2.836-336.964-5.347-505.45-7.779
				c-56.712-0.818-66.721-10.067-65.723-67.062c3.982-227.495,8.077-454.989,12.798-682.47c1.464-70.574-0.204-58.037,61.649-56.96
				c342.614,5.967,685.213,12.849,1027.816,19.417C2457.685,2332.392,2457.688,2332.248,2457.691,2332.104z"/>
                <path fill="#262626" d="M2464.447,2037.605c-348.211-6.898-696.414-14.368-1044.648-19.851
				c-36.738-0.578-48.678-8.622-45.557-47.161c5.008-61.848,2.938-124.252,4.358-186.409c1.097-47.994,9.356-55.72,58.345-54.895
				c322.746,5.434,645.49,10.978,968.234,16.539c291.609,5.025,583.219,9.947,874.822,15.294
				c77.839,1.427,155.643,5.127,233.483,6.026c34.534,0.399,48.258,14.798,47.017,49.009c-2.408,66.36-4.591,132.826-3.314,199.181
				c0.652,33.91-10.762,42.315-43.846,41.51c-257.586-6.266-515.21-11.138-772.84-15.42c-91.99-1.529-184.028-0.245-276.045-0.245
				C2464.453,2039.99,2464.45,2038.797,2464.447,2037.605z"/>
		</g>
            <g>
			<path fill="#FFFFFF" d="M1321.265,4455.972c-9.072,4.536-27.217,9.072-50.464,9.072c-53.867,0-94.409-34.021-94.409-96.676
				c0-59.82,40.542-100.362,99.795-100.362c23.815,0,38.841,5.104,45.361,8.505l-5.954,20.13
				c-9.355-4.537-22.681-7.938-38.557-7.938c-44.794,0-74.562,28.634-74.562,78.815c0,46.778,26.933,76.83,73.429,76.83
				c15.026,0,30.335-3.118,40.258-7.938L1321.265,4455.972z"/>
                <path fill="#FFFFFF" d="M1502.421,4364.682c0,65.774-39.975,100.646-88.738,100.646c-50.464,0-85.903-39.124-85.903-96.959
				c0-60.671,37.707-100.362,88.738-100.362C1468.684,4268.006,1502.421,4307.98,1502.421,4364.682z M1354.146,4367.801
				c0,40.825,22.113,77.397,60.954,77.397c39.124,0,61.238-36.005,61.238-79.382c0-37.99-19.846-77.682-60.954-77.682
				C1374.559,4288.135,1354.146,4325.842,1354.146,4367.801z"/>
                <path fill="#FFFFFF" d="M1527.365,4462.209v-191.085h26.933l61.238,96.677c14.175,22.397,25.232,42.526,34.305,62.088
				l0.567-0.283c-2.268-25.516-2.835-48.764-2.835-78.531v-79.95h23.248v191.085h-24.949l-60.671-96.96
				c-13.325-21.263-26.083-43.093-35.722-63.789l-0.851,0.283c1.418,24.099,1.985,47.062,1.985,78.815v81.65H1527.365z"/>
                <path fill="#FFFFFF" d="M1840.352,4455.972c-9.072,4.536-27.217,9.072-50.464,9.072c-53.867,0-94.408-34.021-94.408-96.676
				c0-59.82,40.542-100.362,99.795-100.362c23.814,0,38.84,5.104,45.361,8.505l-5.954,20.13c-9.355-4.537-22.681-7.938-38.557-7.938
				c-44.794,0-74.562,28.634-74.562,78.815c0,46.778,26.933,76.83,73.429,76.83c15.026,0,30.335-3.118,40.258-7.938
				L1840.352,4455.972z"/>
                <path fill="#FFFFFF" d="M1888.824,4271.124v191.085h-24.666v-191.085H1888.824z"/>
                <path fill="#FFFFFF" d="M1924.828,4271.124h24.666v170.389h81.65v20.696h-106.316V4271.124z"/>
                <path fill="#FFFFFF" d="M2076.215,4271.124v191.085h-24.666v-191.085H2076.215z"/>
                <path fill="#FFFFFF" d="M2143.121,4402.105l-19.846,60.104h-25.516l64.923-191.085h29.768l65.207,191.085h-26.366l-20.413-60.104
				H2143.121z M2205.776,4382.826l-18.711-55c-4.253-12.475-7.088-23.814-9.923-34.872h-0.567
				c-2.835,11.341-5.954,22.965-9.639,34.589l-18.711,55.283H2205.776z"/>
                <path fill="#FFFFFF" d="M2278.634,4273.676c15.026-2.268,32.887-3.969,52.449-3.969c35.438,0,60.671,8.222,77.398,23.814
				c17.01,15.593,26.933,37.707,26.933,68.609c0,31.186-9.639,56.701-27.5,74.279c-17.861,17.86-47.346,27.5-84.486,27.5
				c-17.578,0-32.32-0.851-44.794-2.269V4273.676z M2303.3,4442.646c6.237,1.135,15.31,1.418,24.949,1.418
				c52.732,0,81.367-29.484,81.367-81.083c0.284-45.078-25.232-73.713-77.397-73.713c-12.758,0-22.397,1.135-28.918,2.552V4442.646z
				"/>
                <path fill="#FFFFFF" d="M2623.656,4364.682c0,65.774-39.975,100.646-88.738,100.646c-50.464,0-85.903-39.124-85.903-96.959
				c0-60.671,37.707-100.362,88.738-100.362C2589.918,4268.006,2623.656,4307.98,2623.656,4364.682z M2475.381,4367.801
				c0,40.825,22.113,77.397,60.954,77.397c39.124,0,61.238-36.005,61.238-79.382c0-37.99-19.846-77.682-60.954-77.682
				C2495.794,4288.135,2475.381,4325.842,2475.381,4367.801z"/>
                <path fill="#FFFFFF" d="M2648.6,4273.676c12.474-2.552,30.335-3.969,47.346-3.969c26.366,0,43.377,4.819,55.284,15.593
				c9.639,8.505,15.026,21.547,15.026,36.289c0,25.232-15.876,41.959-36.005,48.764v0.851c14.742,5.103,23.531,18.711,28.067,38.557
				c6.237,26.65,10.773,45.078,14.743,52.449h-25.516c-3.119-5.387-7.372-21.83-12.758-45.645
				c-5.67-26.366-15.877-36.289-38.274-37.14h-23.248v82.784H2648.6V4273.676z M2673.265,4360.713h25.232
				c26.366,0,43.093-14.459,43.093-36.289c0-24.665-17.861-35.438-43.943-35.722c-11.908,0-20.413,1.134-24.382,2.268V4360.713z"/>
                <path fill="#FFFFFF" d="M2826.352,4402.105l-19.846,60.104h-25.516l64.923-191.085h29.769l65.207,191.085h-26.366l-20.413-60.104
				H2826.352z M2889.008,4382.826l-18.712-55c-4.253-12.475-7.088-23.814-9.923-34.872h-0.567
				c-2.835,11.341-5.953,22.965-9.639,34.589l-18.712,55.283H2889.008z"/>
                <path fill="#FFFFFF" d="M3014.878,4273.676c15.026-2.268,32.887-3.969,52.449-3.969c35.438,0,60.671,8.222,77.397,23.814
				c17.011,15.593,26.934,37.707,26.934,68.609c0,31.186-9.64,56.701-27.5,74.279c-17.861,17.86-47.347,27.5-84.486,27.5
				c-17.577,0-32.319-0.851-44.794-2.269V4273.676z M3039.543,4442.646c6.237,1.135,15.31,1.418,24.949,1.418
				c52.732,0,81.366-29.484,81.366-81.083c0.284-45.078-25.231-73.713-77.397-73.713c-12.758,0-22.397,1.135-28.918,2.552V4442.646z
				"/>
                <path fill="#FFFFFF" d="M3295.543,4372.62h-74.279v68.893h82.785v20.696h-107.45v-191.085h103.197v20.696h-78.532v60.388h74.279
				V4372.62z"/>
                <path fill="#FFFFFF" d="M3515.536,4455.972c-9.072,4.536-27.217,9.072-50.465,9.072c-53.866,0-94.408-34.021-94.408-96.676
				c0-59.82,40.542-100.362,99.795-100.362c23.814,0,38.841,5.104,45.361,8.505l-5.953,20.13
				c-9.356-4.537-22.681-7.938-38.558-7.938c-44.794,0-74.562,28.634-74.562,78.815c0,46.778,26.934,76.83,73.429,76.83
				c15.025,0,30.335-3.118,40.258-7.938L3515.536,4455.972z"/>
                <path fill="#FFFFFF" d="M3571.38,4402.105l-19.846,60.104h-25.516l64.923-191.085h29.769l65.207,191.085h-26.366l-20.413-60.104
				H3571.38z M3634.035,4382.826l-18.712-55c-4.252-12.475-7.088-23.814-9.923-34.872h-0.566
				c-2.835,11.341-5.954,22.965-9.64,34.589l-18.712,55.283H3634.035z"/>
                <path fill="#FFFFFF" d="M3706.894,4273.676c12.475-2.552,30.335-3.969,47.346-3.969c26.366,0,43.377,4.819,55.284,15.593
				c9.64,8.505,15.025,21.547,15.025,36.289c0,25.232-15.876,41.959-36.005,48.764v0.851c14.742,5.103,23.531,18.711,28.067,38.557
				c6.237,26.65,10.773,45.078,14.742,52.449h-25.516c-3.119-5.387-7.371-21.83-12.758-45.645
				c-5.671-26.366-15.877-36.289-38.273-37.14h-23.248v82.784h-24.665V4273.676z M3731.559,4360.713h25.232
				c26.366,0,43.093-14.459,43.093-36.289c0-24.665-17.86-35.438-43.943-35.722c-11.907,0-20.413,1.134-24.382,2.268V4360.713z"/>
                <path fill="#FFFFFF"
                      d="M3891.166,4292.104h-58.119v-20.979h141.471v20.979h-58.403v170.105h-24.948V4292.104z"/>
                <path fill="#FFFFFF" d="M4144.337,4364.682c0,65.774-39.975,100.646-88.738,100.646c-50.465,0-85.903-39.124-85.903-96.959
				c0-60.671,37.707-100.362,88.738-100.362C4110.6,4268.006,4144.337,4307.98,4144.337,4364.682z M3996.062,4367.801
				c0,40.825,22.114,77.397,60.955,77.397c39.124,0,61.237-36.005,61.237-79.382c0-37.99-19.846-77.682-60.954-77.682
				C4016.475,4288.135,3996.062,4325.842,3996.062,4367.801z M4021.861,4258.934c-0.567-17.294,6.804-28.918,19.278-28.918
				c6.237,0,10.773,2.269,16.727,5.67c4.536,2.552,9.072,5.104,13.608,5.104c4.253,0,6.805-1.984,7.655-11.057h13.041
				c0.284,17.86-5.953,27.5-18.995,27.5c-5.953,0-11.057-2.268-17.294-5.387c-5.387-2.835-9.355-5.387-13.324-5.387
				c-4.536,0-6.805,4.82-7.372,12.475H4021.861z"/>
                <path fill="#FFFFFF" d="M4268.225,4372.62h-74.279v68.893h82.784v20.696H4169.28v-191.085h103.197v20.696h-78.532v60.388h74.279
				V4372.62z"/>
                <path fill="#FFFFFF" d="M4298.271,4432.157c11.057,6.804,27.217,12.475,44.228,12.475c25.232,0,39.975-13.325,39.975-32.604
				c0-17.861-10.206-28.067-36.006-37.99c-31.186-11.057-50.464-27.217-50.464-54.15c0-29.769,24.665-51.882,61.805-51.882
				c19.562,0,33.737,4.536,42.242,9.355l-6.804,20.129c-6.237-3.401-18.995-9.072-36.289-9.072
				c-26.083,0-36.006,15.594-36.006,28.635c0,17.861,11.624,26.649,37.99,36.856c32.319,12.474,48.764,28.067,48.764,56.134
				c0,29.485-21.83,55.001-66.908,55.001c-18.428,0-38.558-5.387-48.764-12.19L4298.271,4432.157z"/>
		</g>
            <g>
			<rect x="1943.468" y="2513.865" fill="none" width="1723.113" height="568.382"/>
                <path fill="#FFFFFF" d="M1967.792,2910.426v-277.151c0-79.608,41.278-126.783,119.411-126.783s119.411,47.175,119.411,126.783
				v54.545h-76.659v-59.705c0-33.907-16.216-47.912-40.541-47.912c-24.325,0-40.541,14.005-40.541,47.912v288.208
				c0,33.907,16.216,47.175,40.541,47.175c24.324,0,40.541-13.268,40.541-47.175v-75.185h76.659v69.288
				c0,79.607-41.278,126.782-119.411,126.782S1967.792,2990.033,1967.792,2910.426z"/>
                <path fill="#FFFFFF" d="M2247.153,2513.862h120.148c84.03,0,120.148,39.066,120.148,118.674v31.696
				c0,53.071-16.954,86.979-53.072,101.72v1.475c40.541,12.531,53.809,50.861,53.809,109.092v90.664
				c0,25.062,0.737,43.489,8.845,62.654h-82.556c-4.422-13.268-7.371-21.376-7.371-63.392v-94.35
				c0-47.911-14.005-63.391-50.86-63.391h-28.01v221.132h-81.082V2513.862z M2357.719,2734.994
				c30.222,0,48.649-13.268,48.649-54.546v-39.804c0-36.854-12.531-53.071-41.278-53.071h-36.855v147.421H2357.719z"/>
                <path fill="#FFFFFF" d="M2536.835,2513.862h221.132v73.711h-140.05v136.365h111.303v73.71h-111.303v158.478h140.05v73.711
				h-221.132V2513.862z"/>
                <path fill="#FFFFFF" d="M2794.081,2513.862h123.834c81.082,0,120.886,44.964,120.886,127.52v260.936
				c0,82.556-39.804,127.52-120.886,127.52h-123.834V2513.862z M2916.441,2956.126c25.799,0,41.277-13.268,41.277-50.123v-268.307
				c0-36.855-15.479-50.123-41.277-50.123h-41.278v368.553H2916.441z"/>
                <path fill="#FFFFFF" d="M3085.969,2513.862h81.082v515.975h-81.082V2513.862z"/>
                <path fill="#FFFFFF"
                      d="M3283.503,2587.573h-84.768v-73.711h250.617v73.711h-84.768v442.264h-81.082V2587.573z"/>
		</g>
            <g>
			<rect x="1217.18" y="3348.023" fill="none" width="2727.353" height="881.715"/>
                <path fill="#FFFFFF" d="M1259.025,3348.017h166.36c116.35,0,166.36,54.093,166.36,164.319v43.887
				c0,73.484-23.474,120.433-73.484,140.845v2.041c56.134,17.351,74.505,70.423,74.505,151.051v125.536
				c0,34.7,1.021,60.216,12.248,86.752h-114.309c-6.124-18.371-10.207-29.598-10.207-87.772v-130.639
				c0-66.341-19.392-87.773-70.422-87.773h-38.783v306.185h-112.268V3348.017z M1412.118,3654.201
				c41.845,0,67.36-18.371,67.36-75.525v-55.113c0-51.03-17.351-73.484-57.154-73.484h-51.031v204.123H1412.118z"/>
                <path fill="#FFFFFF" d="M1660.125,3348.017h306.185v102.062h-193.917v188.814h154.113v102.062h-154.113v219.432h193.917v102.062
				h-306.185V3348.017z"/>
                <path fill="#FFFFFF" d="M2008.146,3897.107v-383.751c0-110.227,57.154-175.546,165.34-175.546
				c108.185,0,165.339,65.319,165.339,175.546v75.525h-106.144v-82.67c0-46.948-22.453-66.34-56.134-66.34
				c-33.68,0-56.134,19.392-56.134,66.34v399.061c0,46.948,22.454,65.319,56.134,65.319c33.681,0,56.134-18.371,56.134-65.319
				V3801.17h106.144v95.938c0,110.227-57.154,175.546-165.339,175.546C2065.3,4072.653,2008.146,4007.334,2008.146,3897.107z"/>
                <path fill="#FFFFFF" d="M2388.828,3893.025v-375.586c0-114.31,60.216-179.629,170.443-179.629
				c110.226,0,170.442,65.319,170.442,179.629v375.586c0,114.309-60.216,179.628-170.442,179.628
				C2449.044,4072.653,2388.828,4007.334,2388.828,3893.025z M2617.446,3900.17v-389.875c0-51.031-22.454-70.423-58.175-70.423
				c-35.722,0-58.175,19.392-58.175,70.423v389.875c0,51.03,22.454,70.422,58.175,70.422
				C2594.992,3970.592,2617.446,3951.2,2617.446,3900.17z"/>
                <path fill="#FFFFFF" d="M2763.387,3348.017h113.288l74.505,561.339l74.505-561.339h103.082l-108.185,714.431h-149.01
				L2763.387,3348.017z"/>
                <path fill="#FFFFFF" d="M3172.64,3348.017h306.185v102.062h-193.917v188.814h154.113v102.062h-154.113v219.432h193.917v102.062
				H3172.64V3348.017z"/>
                <path fill="#FFFFFF" d="M3528.825,3348.017h166.36c116.351,0,166.36,54.093,166.36,164.319v43.887
				c0,73.484-23.474,120.433-73.484,140.845v2.041c56.134,17.351,74.505,70.423,74.505,151.051v125.536
				c0,34.7,1.021,60.216,12.248,86.752h-114.31c-6.123-18.371-10.206-29.598-10.206-87.772v-130.639
				c0-66.341-19.392-87.773-70.422-87.773h-38.783v306.185h-112.269V3348.017z M3681.918,3654.201
				c41.845,0,67.36-18.371,67.36-75.525v-55.113c0-51.03-17.351-73.484-57.154-73.484h-51.03v204.123H3681.918z"/>
		</g>
            <path fill="#E1AB40" d="M1823.787,2997.645l-321.281-4.276c-17.147-0.228-30.862-14.314-30.634-31.461l4.276-321.281
			c0.228-17.147,14.314-30.862,31.46-30.634l321.281,4.276c17.147,0.228,30.862,14.313,30.634,31.46l-4.276,321.281
			C1855.019,2984.157,1840.934,2997.873,1823.787,2997.645z"/>
            <path fill="#E1AB40" d="M4003.517,2719.921l-278.216-160.628c-14.864-8.582-19.957-27.588-11.375-42.451l160.628-278.216
			c8.582-14.864,27.588-19.956,42.451-11.375l278.216,160.628c14.864,8.582,19.957,27.588,11.375,42.451l-160.628,278.216
			C4037.387,2723.41,4018.381,2728.503,4003.517,2719.921z"/>
            <g>
			<path fill="#FFFFFF" d="M1647.888,2918.756v-28.635c-16.443-0.283-33.454-5.387-43.376-12.474l6.804-18.995
				c10.206,6.804,24.949,12.19,40.825,12.19c20.129,0,33.737-11.624,33.737-27.784c0-15.593-11.057-25.231-32.037-33.737
				c-28.917-11.34-46.779-24.382-46.779-49.047c0-23.531,16.727-41.392,42.81-45.645v-28.635h17.577v27.501
				c17.011,0.566,28.634,5.103,36.856,9.923l-7.088,18.711c-5.954-3.402-17.578-9.639-35.722-9.639
				c-21.83,0-30.052,13.041-30.052,24.381c0,14.743,10.49,22.114,35.155,32.32c29.201,11.907,43.943,26.649,43.943,51.882
				c0,22.397-15.593,43.377-44.794,48.196v29.485H1647.888z"/>
		</g>
            <g>
			<path fill="#FFFFFF" d="M3892.988,2574.442l14.317-24.799c-14.099-8.467-26.278-21.392-31.328-32.491l15.39-13.048
				c5.438,10.995,15.512,23.032,29.261,30.97c17.433,10.064,35.03,6.803,43.11-7.192c7.796-13.504,3.039-27.38-10.877-45.236
				c-19.373-24.278-28.32-44.505-15.988-65.864c11.766-20.379,35.182-27.483,59.897-18.125l14.317-24.799l15.223,8.789
				l-13.751,23.816c14.448,8.996,22.247,18.736,26.957,27.021l-15.493,12.66c-3.455-5.923-10.404-17.137-26.117-26.209
				c-18.906-10.914-32.547-3.731-38.217,6.089c-7.371,12.769-1.973,24.397,14.285,45.567c19.336,24.914,24.732,45.051,12.115,66.904
				c-11.198,19.396-35.191,29.769-62.891,19.341l-14.742,25.535L3892.988,2574.442z"/>
		</g>
	</g>
</g>
</svg>
