<?xml version="1.0" encoding="utf-8"?>
<!-- Svg Vector Icons : http://www.onlinewebfonts.com/icon -->
<!DOCTYPE svg PUBLIC "-//W3C//DTD SVG 1.1//EN" "http://www.w3.org/Graphics/SVG/1.1/DTD/svg11.dtd">
<svg version="1.1" xmlns="http://www.w3.org/2000/svg" xmlns:xlink="http://www.w3.org/1999/xlink" x="0px" y="0px" viewBox="0 0 256 256" enable-background="new 0 0 256 256" xml:space="preserve">
<metadata> Svg Vector Icons : http://www.onlinewebfonts.com/icon </metadata>
<g><g><path fill="#000000" d="M236.7,82.1c-5.9-14.1-14.4-26.7-25.3-37.5c-10.8-10.8-23.5-19.3-37.5-25.3c-14.6-6.2-30-9.3-45.9-9.3s-31.4,3.1-45.9,9.3C68,25.2,55.4,33.7,44.6,44.6C33.7,55.4,25.2,68,19.3,82.1c-6.2,14.6-9.3,30-9.3,45.9s3.1,31.4,9.3,45.9c5.9,14,14.4,26.7,25.3,37.5c10.8,10.8,23.5,19.3,37.5,25.3c14.6,6.2,30,9.3,45.9,9.3s31.4-3.1,45.9-9.3c14-5.9,26.7-14.4,37.5-25.3c10.8-10.8,19.3-23.5,25.3-37.5c6.2-14.6,9.3-30,9.3-45.9S242.9,96.6,236.7,82.1z M232.2,172c-5.7,13.5-13.8,25.6-24.3,35.9c-10.4,10.4-22.5,18.5-36,24.2c-13.9,5.9-28.8,8.9-44,8.9c-15.3,0-30.1-3-44-8.9C70.5,226.5,58.4,218.4,48,208c-10.4-10.4-18.5-22.5-24.2-36c-5.9-13.9-8.9-28.7-8.9-44c0-15.3,3-30.1,8.9-44C29.5,70.5,37.6,58.4,48,48c10.4-10.4,22.5-18.5,36-24.2c13.9-5.9,28.7-8.9,44-8.9c15.3,0,30.1,3,44,8.9c13.5,5.7,25.6,13.8,35.9,24.3s18.5,22.5,24.2,36c5.9,13.9,8.9,28.8,8.9,44C241.1,143.3,238.1,158.1,232.2,172z"/><path fill="#000000" d="M146.8,133.9c10.3-6.4,17.2-17.7,17.2-30.8c0-20-16.1-36.3-36.1-36.3c-19.9,0-36.1,16.3-36.1,36.3c0,13.1,6.9,24.4,17.2,30.8c-20.5,7.7-35.2,27.5-35.2,50.8c0,2.5,2,4.5,4.5,4.5c2.5,0,4.5-2,4.5-4.5c0-25,20.2-45.3,45.1-45.3c24.9,0,45.1,20.3,45.1,45.3c0,2.5,2,4.5,4.5,4.5s4.5-2,4.5-4.5C182.1,161.3,167.4,141.6,146.8,133.9z M101,103.1c0-15,12.1-27.2,27-27.2c14.9,0,27,12.2,27,27.2c0,15-12.1,27.2-27,27.2C113.1,130.3,101,118.1,101,103.1z"/></g></g>
</svg>